<svg width="24" height="24" viewBox="0 0 24 24" fill="none" xmlns="http://www.w3.org/2000/svg">
<circle cx="12" cy="12" r="12" fill="url(#paint0_linear_334_429)"/>
<path d="M18.2918 19.1233L15.7337 16.5254C14.5561 17.5161 13.0841 18.0571 11.5286 18.0571C7.9281 18.0611 5 15.133 5 11.5286C5 7.92413 7.9281 5 11.5325 5C15.137 5 18.0651 7.9281 18.0651 11.5286C18.0651 12.3959 17.898 13.2393 17.5678 14.035L16.6488 13.653C16.9273 12.9807 17.0705 12.2646 17.0705 11.5286C17.0705 8.47712 14.588 5.9946 11.5325 5.9946C8.47712 5.9946 5.9946 8.47712 5.9946 11.5286C5.9946 14.58 8.47712 17.0665 11.5325 17.0665C12.9886 17.0665 14.3652 16.5055 15.4075 15.4831L15.7616 15.137L19 18.4271L18.2918 19.1273V19.1233Z" fill="white" stroke="white" stroke-width="0.3"/>
<path d="M13.6856 11.0312H9.37695V12.0259H13.6856V11.0312Z" fill="white" stroke="white" stroke-width="0.3"/>
<path d="M12.0307 9.37646H11.0361V13.6851H12.0307V9.37646Z" fill="white" stroke="white" stroke-width="0.3"/>
<defs>
<linearGradient id="paint0_linear_334_429" x1="-6.54545" y1="9.27273" x2="26.7273" y2="18" gradientUnits="userSpaceOnUse">
<stop stop-color="#0068A6"/>
<stop offset="1" stop-color="#6DCFF6"/>
</linearGradient>
</defs>
</svg>
