<svg width="24" height="24" viewBox="0 0 24 24" fill="none" xmlns="http://www.w3.org/2000/svg">
<circle cx="12" cy="12" r="12" fill="url(#paint0_linear_334_428)"/>
<path d="M11.9838 19.8158L11.7466 19.689C4.66007 15.9392 4.9872 10.4352 5.00765 10.2021C5.08534 6.05158 8.57342 6.0025 8.61022 6.0025C10.3399 5.94526 11.4318 6.88168 11.9838 7.56457C12.5358 6.88577 13.6154 5.95343 15.3697 6.0025C16.3265 6.0025 18.2975 6.63633 18.825 9.0285L17.8273 9.24932C17.3447 7.04934 15.4392 7.0248 15.3574 7.0248C13.3332 6.96755 12.4786 8.63594 12.4418 8.70546L11.9797 9.64188L11.5217 8.70137C11.489 8.63185 10.6671 7.02071 8.72881 7.02071C8.69609 7.02071 8.65929 7.02071 8.62658 7.02071C8.35669 7.02071 6.08719 7.1393 6.02994 10.243C6.01359 10.472 5.76415 15.2359 11.9838 18.6504C13.0838 18.0452 14.0529 17.3582 14.8667 16.6017L15.5618 17.35C14.6254 18.221 13.5009 19.0061 12.221 19.6849L11.9838 19.8117V19.8158Z" fill="white" stroke="white" stroke-width="0.3"/>
<path d="M18.2398 16.3033L16.6369 12.1528L15.132 15.5223L14.0893 12.9175H11.2637V11.8952H14.7845L15.1852 12.9011L16.7064 9.49072L18.2766 13.5595L19.0004 11.8256H21V12.8479H19.6833L18.2398 16.3033Z" fill="white" stroke="white" stroke-width="0.3"/>
<defs>
<linearGradient id="paint0_linear_334_428" x1="-6.54545" y1="9.27273" x2="26.7273" y2="18" gradientUnits="userSpaceOnUse">
<stop stop-color="#0068A6"/>
<stop offset="1" stop-color="#6DCFF6"/>
</linearGradient>
</defs>
</svg>
