<svg width="12" height="12" viewBox="0 0 12 12" fill="none" xmlns="http://www.w3.org/2000/svg">
<g clip-path="url(#clip0_334_249)">
<path d="M6 7.49609C5.17158 7.49609 4.5 8.16767 4.5 8.99609V11.9961H7.5V8.99609C7.5 8.16767 6.82842 7.49609 6 7.49609Z" fill="#ECEDF0"/>
<path d="M8.50001 8.99644V11.9964H10.5C11.3284 11.9964 12 11.3249 12 10.4964V5.93594C12.0001 5.67618 11.8992 5.42658 11.7185 5.23994L7.46951 0.646427C6.71979 -0.164745 5.45445 -0.21455 4.64327 0.535169C4.60474 0.570794 4.56762 0.607895 4.53202 0.646427L0.290508 5.23844C0.104367 5.42585 -7.0277e-05 5.6793 3.54804e-08 5.94344V10.4964C3.54804e-08 11.3249 0.671578 11.9964 1.5 11.9964H3.49999V8.99644C3.50934 7.63303 4.61013 6.51965 5.9392 6.48759C7.31273 6.45445 8.48953 7.58679 8.50001 8.99644Z" fill="#ECEDF0"/>
<path d="M6 7.49609C5.17158 7.49609 4.5 8.16767 4.5 8.99609V11.9961H7.5V8.99609C7.5 8.16767 6.82842 7.49609 6 7.49609Z" fill="#ECEDF0"/>
</g>
<defs>
<clipPath id="clip0_334_249">
<rect width="12" height="12" fill="white"/>
</clipPath>
</defs>
</svg>
