<svg width="64" height="64" viewBox="0 0 64 64" fill="none" xmlns="http://www.w3.org/2000/svg">
<path d="M30.7351 32.9862C29.6337 31.8848 27.8483 31.8848 26.7469 32.9862L20.8477 38.8905L12.8261 46.9071C11.7246 48.0085 11.7246 49.7939 12.8261 50.8953C13.9275 51.9967 15.7128 51.9967 16.8142 50.8953L24.8358 42.8787L30.7351 36.9744C31.8365 35.873 31.8365 34.0876 30.7351 32.9862Z" fill="url(#paint0_linear_396_639)"/>
<path d="M46.2705 38.9458C40.331 44.8803 30.7101 44.8803 24.7756 38.9458C18.8411 33.0113 18.8411 23.3853 24.7756 17.4509C30.7101 11.5164 40.336 11.5164 46.2705 17.4509C52.205 23.3853 52.205 33.0113 46.2705 38.9458Z" fill="url(#paint1_linear_396_639)"/>
<path d="M43.1672 35.843C38.9477 40.0625 32.1029 40.0625 27.8834 35.843C23.6639 31.6235 23.6639 24.7787 27.8834 20.5592C32.1029 16.3397 38.9477 16.3397 43.1672 20.5592C47.3867 24.7787 47.3867 31.6235 43.1672 35.843Z" fill="#B5EAF7"/>
<path d="M36.5137 21.0869C38.0828 21.0869 39.6469 21.6854 40.8438 22.8823C42.0408 24.0793 42.6393 25.6434 42.6393 27.2125" stroke="white" stroke-width="3" stroke-linecap="round" stroke-linejoin="round"/>
<defs>
<linearGradient id="paint0_linear_396_639" x1="23.8954" y1="44.0555" x2="20.3498" y2="40.5099" gradientUnits="userSpaceOnUse">
<stop stop-color="#0068A6"/>
<stop offset="1" stop-color="#6DCFF6"/>
</linearGradient>
<linearGradient id="paint1_linear_396_639" x1="55.6902" y1="20.7299" x2="28.5324" y2="30.7884" gradientUnits="userSpaceOnUse">
<stop stop-color="#0068A6"/>
<stop offset="1" stop-color="#6DCFF6"/>
</linearGradient>
</defs>
</svg>
