<svg width="128" height="128" viewBox="0 0 128 128" fill="none" xmlns="http://www.w3.org/2000/svg">
<g clip-path="url(#clip0_425_427)">
<path d="M122.667 58.667H5.33333C2.38781 58.667 0 61.0548 0 64.0003C0 66.9458 2.38781 69.3337 5.33333 69.3337H122.667C125.612 69.3337 128 66.9458 128 64.0003C128 61.0548 125.612 58.667 122.667 58.667Z" fill="#0068A6"/>
<path d="M122.667 21.333H5.33333C2.38781 21.333 0 23.7208 0 26.6663C0 29.6119 2.38781 31.9997 5.33333 31.9997H122.667C125.612 31.9997 128 29.6119 128 26.6663C128 23.7208 125.612 21.333 122.667 21.333Z" fill="#0068A6"/>
<path d="M122.667 96H5.33333C2.38781 96 0 98.3878 0 101.333C0 104.279 2.38781 106.667 5.33333 106.667H122.667C125.612 106.667 128 104.279 128 101.333C128 98.3878 125.612 96 122.667 96Z" fill="#0068A6"/>
</g>
<defs>
<clipPath id="clip0_425_427">
<rect width="128" height="128" fill="white"/>
</clipPath>
</defs>
</svg>
