<svg width="16" height="16" viewBox="0 0 16 16" fill="none" xmlns="http://www.w3.org/2000/svg">
<path d="M14.2929 7.36678L8.16621 13.4934C7.41565 14.244 6.39767 14.6657 5.33621 14.6657C4.27475 14.6657 3.25677 14.244 2.50621 13.4934C1.75565 12.7429 1.33398 11.7249 1.33398 10.6634C1.33398 9.60199 1.75565 8.58401 2.50621 7.83344L8.63288 1.70678C9.13325 1.2064 9.81191 0.925293 10.5195 0.925293C11.2272 0.925293 11.9058 1.2064 12.4062 1.70678C12.9066 2.20715 13.1877 2.88581 13.1877 3.59344C13.1877 4.30108 12.9066 4.97973 12.4062 5.48011L6.27288 11.6068C6.02269 11.857 5.68336 11.9975 5.32954 11.9975C4.97572 11.9975 4.6364 11.857 4.38621 11.6068C4.13602 11.3566 3.99547 11.0173 3.99547 10.6634C3.99547 10.3096 4.13602 9.9703 4.38621 9.72011L10.0462 4.06678" stroke="#AEAFB1" stroke-width="1.2" stroke-linecap="round" stroke-linejoin="round"/>
</svg>
