<svg width="209" height="33" viewBox="0 0 209 33" fill="none" xmlns="http://www.w3.org/2000/svg">
<path d="M90.58 13.24H89.2V16.68H86.38V7.66H89.2V10.5H90.58V7.46H93.5V16.68H90.58V13.24ZM82.34 7.96H85.04V16.3H77.04V7.96H79.72V9.68H82.34V7.96ZM79.72 12.28V13.7H82.34V12.28H79.72ZM83.34 22.98V23.96H93.98V26.34H80.22V20.74H90.38V19.84H80.12V17.56H93.5V22.98H83.34ZM96.9248 11.72H107.645V10.72H96.8248V8.14H110.765V14.22H100.045V15.24H111.165V17.76H96.9248V11.72ZM94.9648 19.16H112.725V21.86H108.725V26.46H105.605V21.86H102.085V26.46H98.9648V21.86H94.9648V19.16ZM127.19 26.24V7.46H130.21V26.24H127.19ZM122.13 12.88H119.25C119.23 14.04 119.11 15.16 118.89 16.28L122.73 21.8L120.35 23.6L117.75 19.82C117.15 21.16 116.33 22.48 115.29 23.78L113.01 21.96C115.39 18.84 116.21 15.96 116.27 12.88H113.65V10.04H116.31V7.48H119.29V10.04H122.13V12.88ZM120.75 14.16H123.09V7.74H126.01V25.76H123.09V17H120.75V14.16ZM148.195 21.18H145.075V7.46H148.195V21.18ZM137.555 18.64C134.595 18.64 132.215 16.96 132.215 13.34V13.1C132.215 9.42 134.595 7.76 137.555 7.76C140.495 7.76 142.855 9.42 142.855 13.1V13.34C142.855 16.96 140.495 18.64 137.555 18.64ZM137.555 15.92C138.695 15.92 139.735 15.14 139.735 13.3V13.1C139.735 11.26 138.695 10.48 137.555 10.48C136.375 10.48 135.335 11.26 135.335 13.1V13.3C135.335 15.14 136.375 15.92 137.555 15.92ZM148.795 26.24H135.115V20H138.235V23.42H148.795V26.24ZM166.779 11.82H169.359V14.16H155.319V11.82H157.899V9.98H155.319V7.66H169.359V9.98H166.779V11.82ZM163.759 9.98H160.919V11.82H163.759V9.98ZM153.459 17.42V15H171.219V17.42H153.459ZM169.259 23.26H158.539V24.12H169.759V26.34H155.419V21.16H166.139V20.34H155.319V18.2H169.259V23.26ZM185.804 14.2H184.444V17.86H181.604V7.66H184.444V11.48H185.804V7.46H188.724V19.62H185.804V14.2ZM180.364 15.16L180.644 17.52C179.544 17.8 178.164 17.96 175.904 17.96H172.364V11.8H177.144V10.6H172.364V8.16H179.964V14.2H175.184V15.5H176.484C178.084 15.5 179.264 15.36 180.364 15.16ZM183.044 21.32L189.624 23.64L188.544 26.34L181.124 23.68C179.624 24.88 177.504 25.8 175.024 26.44L174.024 23.74C177.984 22.6 180.364 21.16 180.364 19.26V18.64H183.484V19.26C183.484 20 183.324 20.68 183.044 21.32ZM200.629 15.02V16.16H207.949V18.8H190.189V16.16H197.509V15.02H192.049V12.58H194.629V10.2H192.049V7.76H206.089V10.2H203.509V12.58H206.089V15.02H200.629ZM200.489 10.2H197.649V12.58H200.489V10.2ZM205.989 26.24H192.149V19.84H205.989V26.24ZM202.869 22.22H195.269V23.8H202.869V22.22Z" fill="#005F9E"/>
<g clip-path="url(#clip0_393_157)">
<path d="M60.6752 8.03516H67V24.9584H60.6752V8.03516ZM53.8631 11.6328V24.9584H47.5826V11.6328H41.9052V8.03516H59.5472V11.6328H53.8631ZM31.0617 11.4245H25.749V14.8071H35.8326C35.192 15.2808 34.8171 15.8653 34.8171 16.5001C34.8171 17.135 35.192 17.7161 35.8326 18.1864H25.749V21.5791H31.0617C30.4143 22.0528 30.0939 22.6339 30.0939 23.2688C30.0939 23.9036 30.4143 24.4881 31.0617 24.9584H19.4719V8.03516H31.0617C30.4143 8.51215 30.0939 9.09328 30.0939 9.72815C30.0939 10.363 30.4143 10.9442 31.0617 11.4245ZM10.9968 8.03516H18.3474L12.6053 16.5001L18.3474 24.9584H10.9968L6.32821 16.9738V24.9584H0V8.03516H6.32821V16.0231L10.9968 8.03516Z" fill="#005F9E"/>
<path d="M30.7927 33C33.8495 33 36.3201 31.6731 36.3201 30.0373C36.3201 28.4014 33.8461 27.0712 30.7927 27.0712C27.7393 27.0712 25.3232 28.3946 25.3232 30.0373C25.3232 31.6799 27.7871 33 30.7927 33ZM35.5636 26.2247C38.5726 26.2247 41.0398 24.9012 41.0398 23.2653C41.0398 21.6294 38.576 20.2992 35.5636 20.2992C32.5511 20.2992 30.0941 21.6227 30.0941 23.2653C30.0941 24.9079 32.5579 26.2247 35.5636 26.2247ZM30.7927 5.91877C33.8495 5.91877 36.3201 4.59864 36.3201 2.95939C36.3201 1.32013 33.8495 0 30.7927 0C27.7359 0 25.3232 1.31678 25.3232 2.95939C25.3232 4.60199 27.7871 5.91877 30.7927 5.91877ZM35.5636 12.6874C38.5726 12.6874 41.0398 11.3673 41.0398 9.72465C41.0398 8.08204 38.576 6.76527 35.5636 6.76527C32.5511 6.76527 30.0941 8.08876 30.0941 9.72465C30.0941 11.3605 32.5579 12.6874 35.5636 12.6874ZM40.3481 19.456C43.3503 19.456 45.8141 18.1359 45.8141 16.4966C45.8141 14.8574 43.3503 13.5339 40.3481 13.5339C37.3458 13.5339 34.8173 14.8574 34.8173 16.4966C34.8173 18.1359 37.2845 19.456 40.3481 19.456Z" fill="#67CDF2"/>
</g>
<defs>
<clipPath id="clip0_393_157">
<rect width="67" height="33" fill="white"/>
</clipPath>
</defs>
</svg>
